<svg width="20" height="20" viewBox="0 0 20 20" fill="none" xmlns="http://www.w3.org/2000/svg">
<g clip-path="url(#clip0_1_2)">
<path d="M10 17.4C14.4183 17.4 18 13.8183 18 9.4C18 4.98172 14.4183 1.4 10 1.4C5.58172 1.4 2 4.98172 2 9.4C2 13.8183 5.58172 17.4 10 17.4Z" stroke="white" stroke-width="0.9346" stroke-miterlimit="10"/>
<path d="M19.3 7.2H0.7C0.3 7.2 0 7.5 0 7.9V9.1C0 14.6 4.5 19.1 10 19.1C15.4 19.1 19.9 14.8 20 9.3V7.9C20 7.5 19.7 7.2 19.3 7.2Z" fill="white"/>
<path d="M8.354 9.5H6C5.20435 9.5 4.44129 9.81607 3.87868 10.3787C3.31607 10.9413 3 11.7044 3 12.5C3 13.2956 3.31607 14.0587 3.87868 14.6213C4.44129 15.1839 5.20435 15.5 6 15.5H9C9.48007 15.5003 9.9532 15.3853 10.3796 15.1648C10.8061 14.9442 11.1733 14.6246 11.4506 14.2327C11.7279 13.8408 11.9071 13.3881 11.9731 12.9125C12.0391 12.437 11.99 11.9526 11.83 11.5H11C10.9133 11.5 10.83 11.5103 10.75 11.531C10.9186 11.8355 11.0049 12.1788 11.0002 12.5268C10.9956 12.8749 10.9001 13.2157 10.7234 13.5156C10.5466 13.8154 10.2947 14.064 9.99242 14.2366C9.69017 14.4093 9.34809 14.5001 9 14.5H6C5.46957 14.5 4.96086 14.2893 4.58579 13.9142C4.21071 13.5391 4 13.0304 4 12.5C4 11.9696 4.21071 11.4609 4.58579 11.0858C4.96086 10.7107 5.46957 10.5 6 10.5H7.535C7.753 10.124 8.029 9.786 8.354 9.5Z" fill="black"/>
<path d="M11 9.5C10.5199 9.49975 10.0468 9.61471 9.62037 9.83524C9.19394 10.0558 8.82667 10.3754 8.54939 10.7673C8.27212 11.1592 8.09295 11.6119 8.02693 12.0875C7.96091 12.563 8.00998 13.0474 8.17 13.5H9.268C9.09247 13.196 9.00005 12.8511 9.00005 12.5C9.00005 12.1489 9.09246 11.8041 9.26799 11.5C9.44352 11.196 9.69599 10.9435 10 10.768C10.304 10.5924 10.6489 10.5 11 10.5H14C14.5304 10.5 15.0391 10.7107 15.4142 11.0858C15.7893 11.4609 16 11.9696 16 12.5C16 13.0304 15.7893 13.5391 15.4142 13.9142C15.0391 14.2893 14.5304 14.5 14 14.5H12.465C12.2477 14.8756 11.9708 15.2134 11.645 15.5H14C14.394 15.5 14.7841 15.4224 15.1481 15.2716C15.512 15.1209 15.8427 14.8999 16.1213 14.6213C16.3999 14.3427 16.6209 14.012 16.7716 13.6481C16.9224 13.2841 17 12.894 17 12.5C17 12.106 16.9224 11.7159 16.7716 11.352C16.6209 10.988 16.3999 10.6573 16.1213 10.3787C15.8427 10.1001 15.512 9.87913 15.1481 9.72836C14.7841 9.5776 14.394 9.5 14 9.5H11Z" fill="black"/>
</g>
<defs>
<clipPath id="clip0_1_2">
<rect width="20" height="20" fill="white"/>
</clipPath>
</defs>
</svg>
